# xmcd
#
# Track frame offsets: 
#        150
#        22043
#        46225
#        67425
#        84293
#        101433
#        122260
#        132798
#        150653
#        166682
#        188880
#        208266
#        225410
#        247016
#        258076
#        275943
#
# Disc length: 3875 seconds
#
# Revision: 1
# Processed by: cddbd v1.5.2PL0 Copyright (c) Steve Scherf et al.
# Submitted via: ExactAudioCopyFreeDBPlugin 1.0
#
DISCID=d80f2110
DTITLE=Various Artist - Angel's Nu Soul Explosion
DYEAR=2006
DGENRE=Blues
TTITLE0=Angel Rissoff - Soothe You
TTITLE1=Danny Draher - Big Fun Tonight
TTITLE2=Fonda - You Should Have Stayed With Me
TTITLE3=Bobby Harden - You're Gonna Be Just Fine
TTITLE4=The Jr Mintz Blues Machine and Angel Rissoff - Mighty Cootie Fiy
TTITLE4=o
TTITLE5=Ratso - The Spark
TTITLE6=Gary "Gotta Gotta" Lovett - Crazy Baby
TTITLE7=Angel Rissoff - I'm Gonna Forget About You
TTITLE8=Murry Weinstock and Dr John - Dixie Dog
TTITLE9=Ratso and Angel Rissoff - Harder By The Minute
TTITLE10=The Rosaline Block Party - Never Known Love
TTITLE11=Bobby Harden - What Do You Call It? (I Call It Love)
TTITLE12=The Rosaline Block Party and Angel Rissoff - Isn't It Love
TTITLE13=Gary "Gota Gota Lovett - Your So Fine
TTITLE14=Angel Rissoff - More Where That Came From
TTITLE15=Soul Survivors - Mama Soul
EXTD=YEAR: 2006
EXTT0=
EXTT1=
EXTT2=
EXTT3=
EXTT4=
EXTT5=
EXTT6=
EXTT7=
EXTT8=
EXTT9=
EXTT10=
EXTT11=
EXTT12=
EXTT13=
EXTT14=
EXTT15=
PLAYORDER=
